<?xml version="1.0" encoding="UTF-8"?>
<svg id="Layer_1" data-name="Layer 1" xmlns="http://www.w3.org/2000/svg" viewBox="0 0 997.08 1004.57">
  <defs>
    <style>
      .cls-1 {
        fill: #44576d;
        stroke-width: 0px;
      }
    </style>
  </defs>
  <rect class="cls-1" x=".93" width="459.1" height="426.12" rx="29.56" ry="29.56"/>
  <rect class="cls-1" x="537.98" width="459.1" height="426.12" rx="29.56" ry="29.56"/>
  <path class="cls-1" d="m0,528.08v130.24h996.14v-130.24H0Zm117.01,118.13H11v-106.01h106.01v106.01Z"/>
  <path class="cls-1" d="m0,710.6v130.24h996.14v-130.24H0Zm117.01,118.13H11v-106.01h106.01v106.01Z"/>
  <path class="cls-1" d="m0,874.33v130.24h996.14v-130.24H0Zm117.01,118.13H11v-106.01h106.01v106.01Z"/>
  <rect class="cls-1" x="29.33" y="582.65" width="86.22" height="21.1" transform="translate(-398.24 224.97) rotate(-45)"/>
  <rect class="cls-1" x="18.61" y="597.49" width="44.24" height="21.1" transform="translate(-360.42 1066.79) rotate(-135)"/>
  <rect class="cls-1" x="29.33" y="928.9" width="86.22" height="21.1" transform="translate(-643.07 326.38) rotate(-45)"/>
  <rect class="cls-1" x="18.61" y="943.74" width="44.24" height="21.1" transform="translate(-605.25 1657.87) rotate(-135)"/>
</svg>