<?xml version="1.0" encoding="UTF-8"?>
<svg id="Layer_1" data-name="Layer 1" xmlns="http://www.w3.org/2000/svg" viewBox="0 0 997.08 1004.57">
  <defs>
    <style>
      .cls-1 {
        fill: #44576d;
        stroke-width: 0px;
      }
    </style>
  </defs>
  <rect class="cls-1" x=".93" width="459.1" height="426.12" rx="29.56" ry="29.56"/>
  <rect class="cls-1" x="537.98" width="459.1" height="426.12" rx="29.56" ry="29.56"/>
  <path class="cls-1" d="m0,528.08v130.24h996.14v-130.24H0Zm71.15,117.4c-28.88,0-52.28-23.41-52.28-52.28s23.4-52.28,52.28-52.28,52.28,23.41,52.28,52.28-23.41,52.28-52.28,52.28Z"/>
  <path class="cls-1" d="m0,703.6v130.24h996.14v-130.24H0Zm71.15,117.4c-28.88,0-52.28-23.41-52.28-52.28s23.4-52.28,52.28-52.28,52.28,23.41,52.28,52.28-23.41,52.28-52.28,52.28Z"/>
  <path class="cls-1" d="m0,874.33v130.24h996.14v-130.24H0Zm71.15,117.4c-28.88,0-52.28-23.41-52.28-52.28s23.4-52.28,52.28-52.28,52.28,23.41,52.28,52.28-23.41,52.28-52.28,52.28Z"/>
  <circle class="cls-1" cx="71.15" cy="593.2" r="32.33"/>
</svg>