<?xml version="1.0" encoding="UTF-8"?>
<svg id="Layer_2" data-name="Layer 2" xmlns="http://www.w3.org/2000/svg" viewBox="0 0 1000 1000">
  <defs>
    <style>
      .cls-1 {
        fill: #fff;
      }

      .cls-1, .cls-2 {
        stroke-width: 0px;
      }

      .cls-2 {
        fill: #44576d;
      }
    </style>
  </defs>
  <g id="Layer_1-2" data-name="Layer 1">
    <rect class="cls-2" width="1000" height="1000" rx="83.13" ry="83.13"/>
    <g>
      <path class="cls-1" d="m518.3,608.3c0,22.8-5.2,41.8-15.6,57-10.41,15.21-24.1,27.3-41.1,36.3-17.01,9-35.4,15.4-55.2,19.2-19.8,3.8-39.1,5.7-57.9,5.7-24.4,0-47.4-3.81-69-11.4-8.8-3.2-17.4-6.69-25.8-10.5-8.4-3.8-17.2-6.9-26.4-9.3-1.6-12.8-4.3-26.79-8.1-42-3.81-15.2-5.7-29-5.7-41.4,0-5.6.9-9.9,2.7-12.9s5.9-4.5,12.3-4.5c5.6,0,9.2,1.3,10.8,3.9,1.59,2.61,2.79,6.1,3.6,10.5,1.59,5.61,3,11.1,4.2,16.5,1.2,5.4,2.6,10.9,4.2,16.5,8,24,19.89,40.8,35.7,50.4,15.8,9.6,36.09,14.4,60.9,14.4,20.4,0,38.7-2.9,54.9-8.7,16.2-5.79,29-15.3,38.4-28.5,9.39-13.2,14.1-30.8,14.1-52.8,0-17.19-5.8-32.7-17.4-46.5-11.61-13.8-24.4-24.69-38.4-32.7-3.21-2-6.6-3.8-10.2-5.4-3.6-1.59-7.2-3.2-10.8-4.8-12.4-6.39-24.9-12.8-37.5-19.2-12.6-6.39-25.3-12.6-38.1-18.6-12.4-6.39-25.11-14.49-38.1-24.3-13-9.8-24-21.09-33-33.9-9-12.8-13.5-26.79-13.5-42,0-25.59,6.8-46.8,20.4-63.6,13.59-16.8,30.99-29.4,52.2-37.8,21.2-8.4,43.2-12.6,66-12.6,16.4,0,31.1,2.01,44.1,6,12.99,4,25.89,8.1,38.7,12.3,12.8,4.2,26.79,7.11,42,8.7,1.2,12,2.4,24,3.6,36s3,24,5.4,36c.39,1.6.69,3.21.9,4.8.2,1.6.3,3.21.3,4.8,0,6.4-2.1,10.5-6.3,12.3-4.2,1.8-8.91,2.7-14.1,2.7s-8.01-.99-8.4-3c-.4-2-1-5-1.8-9-5.2-32-16.2-56.1-33-72.3s-42-24.3-75.6-24.3c-24.81,0-44.1,6.6-57.9,19.8-13.8,13.2-20.7,32.4-20.7,57.6,0,16.8,4.4,31,13.2,42.6,8.79,11.61,20.49,21.7,35.1,30.3,14.6,8.61,30.6,16.71,48,24.3,17.4,7.6,34.7,15.4,51.9,23.4,17.19,8.01,33.09,17.31,47.7,27.9,14.6,10.6,26.3,23.31,35.1,38.1,8.79,14.8,13.2,32.8,13.2,54Z"/>
      <path class="cls-1" d="m786.5,341.3c0,3.21-1.41,6.21-4.2,9-2.8,2.8-5.8,4.2-9,4.2-5.61,0-9.4-2.4-11.4-7.2-2.01-5.6-4.11-11.19-6.3-16.8-2.2-5.6-4.3-11.19-6.3-16.8-3.21-8-7.71-14.49-13.5-19.5-5.8-5-13.3-7.5-22.5-7.5-15.21,0-26.5,5.31-33.9,15.9-7.41,10.6-11.1,22.9-11.1,36.9v40.8c0,13.6.2,27.4.6,41.4,12.8,0,25.59-.09,38.4-.3,12.8-.2,25.59-.3,38.4-.3,2.79,0,4.89,1.11,6.3,3.3,1.4,2.2,2.1,4.5,2.1,6.9,0,2.8-.6,5.2-1.8,7.2-1.2,2.01-3.4,3-6.6,3-8.01,0-16-.09-24-.3-8.01-.2-16-.3-24-.3h-27v232.2c0,8.8,2,16.71,6,23.7,3.99,7,11,10.5,21,10.5,4.4,0,8.7-.3,12.9-.9,4.2-.6,8.3-.9,12.3-.9,2.4,0,4.1,1.11,5.1,3.3.99,2.2,1.5,4.3,1.5,6.3,0,4.41-2.2,6.6-6.6,6.6-13.6,0-27.3-.3-41.1-.9s-27.51-.9-41.1-.9h-22.2c-7.2,0-14.4.21-21.6.6-5.2.4-10.2.8-15,1.2-4.8.39-9.81.6-15,.6-6,0-9-2.4-9-7.2,0-4.4,1.4-6.9,4.2-7.5,2.79-.6,5.6-.9,8.4-.9s5.49.1,8.1.3c2.6.21,5.3.3,8.1.3,11.6,0,19.1-3.2,22.5-9.6,3.39-6.39,5.1-14.6,5.1-24.6v-232.8h-34.2c-2.8,0-5.91.3-9.3.9-3.4.6-6.3,1.71-8.7,3.3-.4.4-.9,1-1.5,1.8-.6.81-1.3,1.2-2.1,1.2-3.21,0-4.8-1.2-4.8-3.6,0-.8.5-3.9,1.5-9.3.99-5.4,1.7-8.3,2.1-8.7.8-2,1.8-3.09,3-3.3,1.2-.2,2.6-.3,4.2-.3,2.79,0,5.4.1,7.8.3,2.4.21,5,.3,7.8.3h33v-50.4c0-36.8,9.69-62.49,29.1-77.1,19.4-14.6,46.29-21.9,80.7-21.9,10.4,0,20.4,2.1,30,6.3,9.6,4.2,19.59,6.3,30,6.3.39,9.21,1.1,18.4,2.1,27.6.99,9.21,1.5,18.4,1.5,27.6Z"/>
    </g>
  </g>
</svg>